<svg xmlns="http://www.w3.org/2000/svg" width="256" height="256" viewBox="0 0 100 100"><rect width="100" height="100" rx="20" fill="#f5c078"></rect><path fill="#fff" d="M8.43 64.90L18.33 50.25L8.13 35.05L4.68 34.35L4.68 31.25L21.03 31.25L21.03 34.35L16.78 35.05L23.63 46.40L30.68 35.00L26.38 34.35L26.38 31.25L39.23 31.25L39.23 34.35L35.18 35.05L25.48 48.65L36.38 64.90L39.88 65.40L39.88 68.40L23.58 68.40L23.58 65.40L27.78 64.90L20.28 52.65L13.08 64.90L17.88 65.40L17.88 68.40L4.23 68.40L4.23 65.40L8.43 64.90ZM46.43 64.90L46.43 35.00L42.18 34.35L42.18 31.25L58.18 31.25L58.18 34.35L53.78 35.00L53.78 64.90L58.18 65.45L58.18 68.40L42.18 68.40L42.18 65.40L46.43 64.90ZM59.53 34.35L59.53 31.25L74.73 31.25L74.73 34.35L70.48 35.00L77.93 57.40L79.38 62.45L80.63 57.35L87.63 35.00L83.68 34.35L83.68 31.25L95.78 31.25L95.78 34.35L92.58 35.00L81.08 68.75L75.13 68.75L62.53 35.00L59.53 34.35Z"></path></svg>